<svg xmlns="http://www.w3.org/2000/svg" width="244.285" height="337.597" viewBox="0 0 244.285 337.597"><g transform="translate(13208.121 -5298)"><g transform="translate(-13208.118 5298.01)"><path d="M622.425,384a45.252,45.252,0,1,0,32,13.254,45.254,45.254,0,0,0-32-13.254m0,77.465a32.336,32.336,0,1,1,32.311-32.336,32.334,32.334,0,0,1-32.311,32.336" transform="translate(-500.275 -307.07)" fill="#143642"/><g transform="translate(25.473 24.357)"><path d="M594.145,497.587a84.062,84.062,0,0,1-7.921-109.726,6.457,6.457,0,0,0-10.3-7.8A96.982,96.982,0,0,0,711.667,515.829a6.472,6.472,0,1,0-7.772-10.32,84.09,84.09,0,0,1-109.751-7.922" transform="translate(-556.592 -341.161)" fill="#143642"/><path d="M573.275,392.2a6.675,6.675,0,0,0,8.5.275,84.112,84.112,0,0,1,100.405.125,6.472,6.472,0,1,0,7.8-10.32,97.007,97.007,0,0,0-116.173,0,6.448,6.448,0,0,0-.525,10" transform="translate(-534.773 -362.961)" fill="#143642"/><path d="M623.195,387.89a84.085,84.085,0,0,1,0,100.405,6.646,6.646,0,0,0,.275,8.471,6.448,6.448,0,0,0,10-.525,97.007,97.007,0,0,0,0-116.173,6.475,6.475,0,1,0-10.32,7.822" transform="translate(-458.849 -341.164)" fill="#143642"/></g><path d="M626.264,413.723A19.391,19.391,0,1,1,620.577,400a19.388,19.388,0,0,1,5.688,13.721" transform="translate(-484.823 -291.588)" fill="#00ab69"/><g transform="translate(52.318 52.31)"><g transform="translate(0 0)"><path d="M662.552,443.972A71.145,71.145,0,0,0,605.728,374.3a6.475,6.475,0,1,0-2.674,12.669,58.2,58.2,0,0,1,0,114.024,6.5,6.5,0,1,0,2.674,12.719,71.145,71.145,0,0,0,56.825-69.669" transform="translate(-521.603 -374.147)" fill="#00ab69"/><path d="M580.142,432.4a58.227,58.227,0,0,1,45.43-45.455,6.422,6.422,0,0,0,5.123-6.322,6.5,6.5,0,0,0-7.8-6.347,71.214,71.214,0,0,0-55.425,55.45,6.449,6.449,0,0,0,6.322,7.771h0a6.422,6.422,0,0,0,6.322-5" transform="translate(-567.335 -374.147)" fill="#00ab69"/></g></g><path d="M559.286,410.456a6.471,6.471,0,0,0-6.872-5.747,6.622,6.622,0,0,0-5.947,7.5,122.871,122.871,0,0,0,108.451,108.2,6.472,6.472,0,1,0,1.374-12.869,109.948,109.948,0,0,1-97.007-97.082" transform="translate(-546.388 -276.052)" fill="#00ab69"/><path d="M706.633,404.7a6.571,6.571,0,0,0-5.947,5.9A109.95,109.95,0,0,1,603.7,507.431a6.472,6.472,0,1,0,1.374,12.869,122.9,122.9,0,0,0,108.5-108.5,6.47,6.47,0,0,0-6.947-7.1" transform="translate(-469.335 -276.07)" fill="#00ab69"/><path d="M713.53,461.436A122.87,122.87,0,0,0,605.078,353.259a6.472,6.472,0,1,0-1.374,12.869,109.949,109.949,0,0,1,97.032,97.007,6.471,6.471,0,0,0,6.847,5.747,6.622,6.622,0,0,0,5.972-7.5" transform="translate(-469.335 -353.22)" fill="#00ab69"/><path d="M546.429,461.761a6.5,6.5,0,0,0,6.947,7.122,6.62,6.62,0,0,0,5.947-5.922A109.95,109.95,0,0,1,656.3,366.129a6.472,6.472,0,1,0-1.374-12.869,122.9,122.9,0,0,0-108.5,108.5" transform="translate(-546.4 -353.22)" fill="#00ab69"/></g><path d="M547,534.47a32.182,32.182,0,0,0-7.62.77,13,13,0,0,0-5.14,2.37,9.081,9.081,0,0,0-2.91,4,16.711,16.711,0,0,0-.9,5.78,35.737,35.737,0,0,0,.26,4.65,36.321,36.321,0,0,0,.87,4.17H513.84a15.4,15.4,0,0,1-.66-3,30.012,30.012,0,0,1-.21-3.77,23.386,23.386,0,0,1,.41-4.31,28.072,28.072,0,0,1,1.27-4.58l-9-1.4a39.144,39.144,0,0,0-1.53,6.34,41.909,41.909,0,0,0-.54,6.69,25.19,25.19,0,0,0,1.17,8.39,8.69,8.69,0,0,0,3.71,4.74,12.45,12.45,0,0,0,6.42,1.5H562.5V537a37.719,37.719,0,0,0-7.32-2,53.854,53.854,0,0,0-8.19-.56m6.08,19a3.16,3.16,0,0,1-.56,2.14,2.89,2.89,0,0,1-2.11.6h-10V548.1a3.14,3.14,0,0,1,.6-2.21,3,3,0,0,1,2.14-.6h10Z" transform="translate(-13681.271 5045.306)" fill="#143642"/><path d="M685.8,539.35a6.83,6.83,0,0,0-4.08-3.58,24.521,24.521,0,0,0-8-1,28.383,28.383,0,0,0-8.49,1.24,20.9,20.9,0,0,0-6.81,3.51,14.5,14.5,0,0,0-4.28,5.28v-6a4.71,4.71,0,0,0-9.42,0v17.54h-45q-1.17-4.71-2.27-8.18a36.495,36.495,0,0,0-3-7.09,14.058,14.058,0,0,0-3.61-4.28,12.051,12.051,0,0,0-4.71-2.1,27.8,27.8,0,0,0-5.31-.58H569.25v10.56h11.56s3.22-.09,4.74,2.3a17.161,17.161,0,0,1,1.81,3.58,53.128,53.128,0,0,1,1.6,5.81H569.25v10.56H687V546.3a16.5,16.5,0,0,0-1.2-6.95m-8.22,16.9h-23.2A12.29,12.29,0,0,1,658,548.9q3.91-3.6,11.66-3.61a29.392,29.392,0,0,1,7.89.74Z" transform="translate(-13681.271 5045.306)" fill="#143642"/><path d="M547.71,528.82a5.64,5.64,0,1,0-4-1.648,5.64,5.64,0,0,0,4,1.648" transform="translate(-13681.271 5045.306)" fill="#143642"/><path d="M508.37,590.27a21.4,21.4,0,0,1-2.35-.11,4.219,4.219,0,0,1-1.44-.4,1.53,1.53,0,0,1-.73-.85,4.32,4.32,0,0,1-.21-1.47,10.063,10.063,0,0,1,.05-1.09,6.633,6.633,0,0,1,.14-1.09,7.787,7.787,0,0,1,.24-.93l1.34.22c-.12.47-.22.91-.29,1.34a6.558,6.558,0,0,0-.11,1.21v.88a4.584,4.584,0,0,0,.13.74h3.93q1.15,0,1.8-.06a2.29,2.29,0,0,0,.93-.23.48.48,0,0,0,.27-.45V585.4l-1.92-.22a3.608,3.608,0,0,1-1.43-.39,1.44,1.44,0,0,1-.68-.83,4.492,4.492,0,0,1-.19-1.46,6.2,6.2,0,0,1,.12-1.32,1.869,1.869,0,0,1,.43-.87,1.72,1.72,0,0,1,.81-.48,4.824,4.824,0,0,1,1.31-.15,13.853,13.853,0,0,1,2.78.28l-.24,1.47c-.46-.08-.87-.13-1.23-.16a9.762,9.762,0,0,0-1.08,0H510a6.442,6.442,0,0,0-.66.06v2.3l2.13.22a2.8,2.8,0,0,1,1.23.37,1.45,1.45,0,0,1,.6.82,4.65,4.65,0,0,1,.17,1.36v1a3.81,3.81,0,0,1-.22,1.4,1.69,1.69,0,0,1-.76.87,4.37,4.37,0,0,1-1.56.47,17.869,17.869,0,0,1-2.56.15" transform="translate(-13681.271 5045.306)" fill="#00ab69"/><path d="M514.71,590.07l-.54-1.21a2.869,2.869,0,0,0,.83-.57,1.749,1.749,0,0,0,.44-.79,4.562,4.562,0,0,0,.13-1.21v-6.47h1.37v6.47a5.63,5.63,0,0,1-.22,1.69,3.069,3.069,0,0,1-.72,1.22,4.169,4.169,0,0,1-1.29.87m1.56-11.91a.66.66,0,0,1-.35-.14,1.707,1.707,0,0,1-.36-.35.66.66,0,0,1-.15-.37.69.69,0,0,1,.14-.37,1.663,1.663,0,0,1,.35-.35.66.66,0,0,1,.37-.15.61.61,0,0,1,.36.15,1.662,1.662,0,0,1,.35.35.65.65,0,0,1,.16.37.69.69,0,0,1-.16.36,1.709,1.709,0,0,1-.35.36.72.72,0,0,1-.36.14" transform="translate(-13681.271 5045.306)" fill="#00ab69"/><path d="M518.71,586.38v-8.79h1.38v7.24h1.3v1.55Zm2.68,0v-1.55c.1,0,.17.07.22.21a2.264,2.264,0,0,1,.06.57,2.121,2.121,0,0,1-.06.56c-.05.14-.12.21-.22.21" transform="translate(-13681.271 5045.306)" fill="#00ab69"/><path d="M521.39,586.38c-.1,0-.18-.07-.22-.21a2.12,2.12,0,0,1-.06-.56,2.264,2.264,0,0,1,.06-.57.213.213,0,0,1,.22-.21Zm0,0v-1.55h2.69a2.46,2.46,0,0,0,1-.2,2.81,2.81,0,0,0,.77-.54,3.148,3.148,0,0,0,.55-.75,5.507,5.507,0,0,0,.38-.83l1.26.51a6.1,6.1,0,0,1-.66,1.41,4,4,0,0,1-.95,1.05,4.188,4.188,0,0,1-1.23.67,4.83,4.83,0,0,1-1.51.23Zm7.43,0a1.13,1.13,0,0,1-.67-.19,1.26,1.26,0,0,1-.4-.59l-.92-2.42a4.12,4.12,0,0,0-.7-1.15,2.25,2.25,0,0,0-1-.63,4.751,4.751,0,0,0-1.49-.2h-.61a6.347,6.347,0,0,0-.7.07l-.21-1.52.85-.07h.77a5.812,5.812,0,0,1,2,.3,3.21,3.21,0,0,1,1.37.95,5.482,5.482,0,0,1,.92,1.69l.84,2.22h.63v1.55Zm-3.56,2.84a.66.66,0,0,1-.35-.14,2,2,0,0,1-.36-.35.66.66,0,0,1-.15-.37.63.63,0,0,1,.15-.37,1.3,1.3,0,0,1,.35-.35.52.52,0,0,1,.73,0,1.929,1.929,0,0,1,.35.35.63.63,0,0,1,.15.37.66.66,0,0,1-.15.36,2,2,0,0,1-.36.36.66.66,0,0,1-.36.14m4.26-2.84v-1.55q.15,0,.21.21a1.85,1.85,0,0,1,.07.57,1.741,1.741,0,0,1-.07.56q-.06.21-.21.21" transform="translate(-13681.271 5045.306)" fill="#00ab69"/><path d="M529.52,586.38c-.1,0-.18-.07-.22-.21a2.12,2.12,0,0,1-.06-.56,2.264,2.264,0,0,1,.06-.57.213.213,0,0,1,.22-.21Zm0,0v-1.55h6.61v-3.49c-.21,0-.42-.08-.64-.1s-.49,0-.79,0a9.423,9.423,0,0,0-1.25.09,11.215,11.215,0,0,0-1.31.26l-.52-1.31a7.079,7.079,0,0,1,1-.31,8.187,8.187,0,0,1,1.12-.2,10.932,10.932,0,0,1,1.12-.06,4.658,4.658,0,0,1,1.55.2,1.5,1.5,0,0,1,.84.61,2.239,2.239,0,0,1,.26,1.14v4.76Zm2.19-.52a2.52,2.52,0,0,1-.53-1.18,9.483,9.483,0,0,1-.13-1.57,7.005,7.005,0,0,1,.15-1.47,12.415,12.415,0,0,1,.42-1.4l1.33.36q-.24.71-.39,1.29a5.575,5.575,0,0,0-.14,1.22,7.387,7.387,0,0,0,.05,1,5,5,0,0,0,.16.82,2.7,2.7,0,0,0,.35.7Z" transform="translate(-13681.271 5045.306)" fill="#00ab69"/><path d="M544.4,590.27a21.385,21.385,0,0,1-2.35-.11,4.22,4.22,0,0,1-1.44-.4,1.53,1.53,0,0,1-.73-.85,4.32,4.32,0,0,1-.21-1.47,8.018,8.018,0,0,1,.05-1.09c.05-.37.08-.73.14-1.09a7.793,7.793,0,0,1,.24-.93l1.34.22c-.12.47-.22.91-.29,1.34a6.559,6.559,0,0,0-.11,1.21v.88a4.589,4.589,0,0,0,.13.74h3.94a14.788,14.788,0,0,0,1.79-.06,2.288,2.288,0,0,0,.93-.23.48.48,0,0,0,.27-.45V585.4l-1.92-.22a3.608,3.608,0,0,1-1.43-.39,1.44,1.44,0,0,1-.68-.83,4.488,4.488,0,0,1-.19-1.46,6.187,6.187,0,0,1,.12-1.32,1.87,1.87,0,0,1,.43-.87,1.72,1.72,0,0,1,.81-.48,4.886,4.886,0,0,1,1.32-.15,13.841,13.841,0,0,1,2.77.28l-.24,1.47c-.46-.08-.87-.13-1.23-.16a9.764,9.764,0,0,0-1.08,0H546a6.457,6.457,0,0,0-.66.06v2.3l2.14.22a2.792,2.792,0,0,1,1.22.37,1.45,1.45,0,0,1,.6.82,4.65,4.65,0,0,1,.17,1.36v1a3.807,3.807,0,0,1-.22,1.4,1.69,1.69,0,0,1-.76.87,4.372,4.372,0,0,1-1.56.47,17.861,17.861,0,0,1-2.56.15" transform="translate(-13681.271 5045.306)" fill="#00ab69"/><path d="M551.14,586.38v-8.79h1.39v7.24h1.29v1.55Zm2.68,0v-1.55c.11,0,.18.07.22.21a2.261,2.261,0,0,1,.06.57,2.121,2.121,0,0,1-.06.56.207.207,0,0,1-.22.21" transform="translate(-13681.271 5045.306)" fill="#00ab69"/><path d="M553.82,586.38q-.15,0-.21-.21a1.744,1.744,0,0,1-.07-.56,1.849,1.849,0,0,1,.07-.57q.06-.21.21-.21Zm0-1.55H564v1.55H553.82Zm8.79,1.55v-5a6,6,0,0,0-1.59-.15,3.85,3.85,0,0,0-2.94,1,4.5,4.5,0,0,0-1,3.15h-1.36V579.8h1.36v2.37a3.5,3.5,0,0,1,.95-1.34,4.339,4.339,0,0,1,1.55-.87,6.419,6.419,0,0,1,2-.3,4.3,4.3,0,0,1,1.39.18,1.23,1.23,0,0,1,.73.58,2.579,2.579,0,0,1,.21,1.14v4.8Zm-2.14-8.22a.66.66,0,0,1-.35-.14,1.711,1.711,0,0,1-.36-.35.66.66,0,0,1-.15-.37.691.691,0,0,1,.14-.37,1.663,1.663,0,0,1,.35-.35.64.64,0,0,1,.37-.14.612.612,0,0,1,.37.14,1.62,1.62,0,0,1,.34.35.59.59,0,0,1,.16.37.619.619,0,0,1-.16.36,1.713,1.713,0,0,1-.35.36.69.69,0,0,1-.36.14m3.5,6.67h1.3v1.55H564Zm1.3,1.55v-1.55c.1,0,.17.07.22.21a2.261,2.261,0,0,1,.06.57,2.121,2.121,0,0,1-.06.56.212.212,0,0,1-.22.21" transform="translate(-13681.271 5045.306)" fill="#00ab69"/><path d="M565.27,586.38c-.1,0-.17-.07-.22-.21a2.12,2.12,0,0,1-.06-.56,2.256,2.256,0,0,1,.06-.57c.05-.14.12-.21.22-.21Zm0,0v-1.55h1.9a7.122,7.122,0,0,1-.13-.91v-1.29a6.209,6.209,0,0,1,.14-1.41,1.82,1.82,0,0,1,.49-.91,2,2,0,0,1,1-.49,6.274,6.274,0,0,1,1.49-.15,9,9,0,0,1,3,.46v6.25Zm3.19-1.55h2.65a.65.65,0,0,0,.48-.14.74.74,0,0,0,.14-.52v-2.94h-2.65a.61.61,0,0,0-.49.15.85.85,0,0,0-.13.56Zm1.63-6.67a.66.66,0,0,1-.35-.14,2,2,0,0,1-.36-.35.66.66,0,0,1-.15-.37.63.63,0,0,1,.15-.37,1.3,1.3,0,0,1,.35-.35.52.52,0,0,1,.73,0,1.931,1.931,0,0,1,.35.35.63.63,0,0,1,.15.37.66.66,0,0,1-.15.36,2,2,0,0,1-.36.36.66.66,0,0,1-.36.14" transform="translate(-13681.271 5045.306)" fill="#00ab69"/><path d="M575.3,590.07l-.55-1.21a2.93,2.93,0,0,0,.84-.57,1.851,1.851,0,0,0,.44-.79,4.564,4.564,0,0,0,.13-1.21v-6.47h1.37v6.47a5.615,5.615,0,0,1-.23,1.69,3,3,0,0,1-.71,1.22,4.171,4.171,0,0,1-1.29.87" transform="translate(-13681.271 5045.306)" fill="#00ab69"/><path d="M578.27,586.38v-1.55h4.61q-.3-1.17-.57-1.92a4.3,4.3,0,0,0-.56-1.14,1.512,1.512,0,0,0-.67-.55,2.381,2.381,0,0,0-.93-.16,4.258,4.258,0,0,0-.6.05,3.263,3.263,0,0,0-.59.11l-.39-1.49a5.266,5.266,0,0,1,.81-.15,7.449,7.449,0,0,1,.77-.05,6.821,6.821,0,0,1,1.29.11,2.321,2.321,0,0,1,.94.43,3,3,0,0,1,.74.95,11.066,11.066,0,0,1,.66,1.64q.33,1,.75,2.52v1.2Z" transform="translate(-13681.271 5045.306)" fill="#00ab69"/><path d="M589.28,586.38a7,7,0,0,1-1.52-.14,1.57,1.57,0,0,1-.9-.48,2,2,0,0,1-.43-1,11.68,11.68,0,0,1,0-3.34,2,2,0,0,1,.43-1,1.57,1.57,0,0,1,.9-.48,7.006,7.006,0,0,1,1.52-.14h3.47v6.56Zm-.65-1.55h2.76v-3.47h-2.76a1,1,0,0,0-.65.16.68.68,0,0,0-.2.55v2.06a.64.64,0,0,0,.2.54,1,1,0,0,0,.65.16" transform="translate(-13681.271 5045.306)" fill="#00ab69"/><path d="M593.51,586.38v-1.55h4.61q-.3-1.17-.57-1.92a4.3,4.3,0,0,0-.56-1.14,1.51,1.51,0,0,0-.67-.55,2.381,2.381,0,0,0-.93-.16,4.293,4.293,0,0,0-.6.05,3.432,3.432,0,0,0-.59.11l-.39-1.49a5.266,5.266,0,0,1,.81-.15,7.448,7.448,0,0,1,.77-.05,6.822,6.822,0,0,1,1.29.11,2.321,2.321,0,0,1,.94.43,3,3,0,0,1,.74.95,11.079,11.079,0,0,1,.66,1.64q.33,1,.75,2.52v1.2Z" transform="translate(-13681.271 5045.306)" fill="#00ab69"/><rect width="1.38" height="8.78" transform="translate(-13080.352 5622.896)" fill="#00ab69"/><path d="M603,586.38v-1.55h4.62q-.31-1.17-.57-1.92a4.3,4.3,0,0,0-.56-1.14,1.529,1.529,0,0,0-.68-.55,2.3,2.3,0,0,0-.92-.16,4.275,4.275,0,0,0-.6.05,3.262,3.262,0,0,0-.59.11l-.39-1.49a5.28,5.28,0,0,1,.81-.15,7.232,7.232,0,0,1,.77-.05,6.822,6.822,0,0,1,1.29.11,2.382,2.382,0,0,1,.94.43,3.141,3.141,0,0,1,.74.95,11.075,11.075,0,0,1,.66,1.64q.33,1,.75,2.52v1.2Z" transform="translate(-13681.271 5045.306)" fill="#00ab69"/><path d="M613,586.38a2.18,2.18,0,0,1-1.2-.3,1.67,1.67,0,0,1-.67-.93,5.65,5.65,0,0,1-.21-1.7,7.677,7.677,0,0,1,.12-1.34,6.11,6.11,0,0,1,.3-1.21l1.3.21a8.834,8.834,0,0,0-.25,1,5.446,5.446,0,0,0-.08,1,9,9,0,0,0,0,1,5.336,5.336,0,0,0,.16.76h7.3v-5h1.36v6.56Zm2.12-6.82a.61.61,0,0,1-.35-.15,1.5,1.5,0,0,1-.36-.35.61.61,0,0,1-.15-.37.71.71,0,0,1,.14-.37,1.611,1.611,0,0,1,.35-.34.53.53,0,0,1,.74,0,1.57,1.57,0,0,1,.34.34.51.51,0,0,1,0,.74,1.661,1.661,0,0,1-.35.35.659.659,0,0,1-.36.15m2.16,0a.61.61,0,0,1-.35-.15,1.5,1.5,0,0,1-.36-.35.61.61,0,0,1-.15-.37.659.659,0,0,1,.15-.37,1.37,1.37,0,0,1,.34-.34.66.66,0,0,1,.37-.15.61.61,0,0,1,.37.15,1.571,1.571,0,0,1,.34.34.51.51,0,0,1,0,.74,1.659,1.659,0,0,1-.35.35.63.63,0,0,1-.36.15m3.89,5.27h1.3v1.55h-1.3Zm1.3,1.55v-1.55c.1,0,.18.07.22.21a2.26,2.26,0,0,1,.06.57,2.12,2.12,0,0,1-.06.56.213.213,0,0,1-.22.21" transform="translate(-13681.271 5045.306)" fill="#00ab69"/><path d="M622.44,586.38c-.1,0-.17-.07-.22-.21a2.125,2.125,0,0,1-.06-.56,2.262,2.262,0,0,1,.06-.57.213.213,0,0,1,.22-.21Zm0,0v-1.55h2.66l-.74.75v-5.76h1.37v6.56Zm2.61-8.22a.69.69,0,0,1-.36-.14,1.929,1.929,0,0,1-.35-.35.61.61,0,0,1-.16-.37.63.63,0,0,1,.15-.37,1.451,1.451,0,0,1,.35-.35.63.63,0,0,1,.37-.15.61.61,0,0,1,.36.15,1.66,1.66,0,0,1,.35.35.63.63,0,0,1,.15.37.66.66,0,0,1-.15.36,1.538,1.538,0,0,1-.36.36.66.66,0,0,1-.35.14" transform="translate(-13681.271 5045.306)" fill="#00ab69"/><path d="M627.49,586.38v-8.79h1.38v7.24h1.29v1.55Zm2.67,0v-1.55c.11,0,.18.07.22.21a2.27,2.27,0,0,1,.06.57,2.118,2.118,0,0,1-.06.56.207.207,0,0,1-.22.21" transform="translate(-13681.271 5045.306)" fill="#00ab69"/><path d="M630.16,586.38q-.15,0-.21-.21a2.12,2.12,0,0,1-.06-.56A2.258,2.258,0,0,1,630,585q.06-.21.21-.21Zm0,0v-1.55h2.67l-.74.75v-5.76h1.37v6.56Zm1.48,2.84a.66.66,0,0,1-.35-.14,1.711,1.711,0,0,1-.36-.35.66.66,0,0,1-.15-.37.691.691,0,0,1,.14-.37,1.662,1.662,0,0,1,.35-.35.66.66,0,0,1,.37-.15.63.63,0,0,1,.37.15,1.622,1.622,0,0,1,.34.35.59.59,0,0,1,.16.37.62.62,0,0,1-.16.36,1.709,1.709,0,0,1-.35.36.719.719,0,0,1-.36.14m2.16,0a.66.66,0,0,1-.35-.14,1.711,1.711,0,0,1-.36-.35.66.66,0,0,1-.15-.37.63.63,0,0,1,.15-.37,1.411,1.411,0,0,1,.34-.35.66.66,0,0,1,.37-.15.61.61,0,0,1,.37.15,1.929,1.929,0,0,1,.35.35.63.63,0,0,1,.15.37.66.66,0,0,1-.15.36,2,2,0,0,1-.36.36.692.692,0,0,1-.36.14m-.34-4.39h1.29v1.55h-1.29Zm1.29,1.55v-1.55c.1,0,.18.07.22.21a2.26,2.26,0,0,1,.06.57,2.12,2.12,0,0,1-.06.56.213.213,0,0,1-.22.21" transform="translate(-13681.271 5045.306)" fill="#00ab69"/><path d="M634.75,586.38q-.15,0-.21-.21a2.062,2.062,0,0,1-.07-.56,2.208,2.208,0,0,1,.07-.57q.06-.21.21-.21Zm0-1.55H644.9v1.55H634.75Zm8.79,1.55v-5a6,6,0,0,0-1.59-.15,3.85,3.85,0,0,0-2.94,1,4.5,4.5,0,0,0-1,3.15h-1.36V579.8H638v2.37a3.5,3.5,0,0,1,1-1.34,4.428,4.428,0,0,1,1.55-.87,6.439,6.439,0,0,1,2-.3,4.267,4.267,0,0,1,1.38.18,1.23,1.23,0,0,1,.73.58,2.58,2.58,0,0,1,.21,1.14v4.8Z" transform="translate(-13681.271 5045.306)" fill="#00ab69"/><path d="M650.2,586.38a7,7,0,0,1-1.52-.14,1.57,1.57,0,0,1-.9-.48,2,2,0,0,1-.43-1,11.683,11.683,0,0,1,0-3.34,2,2,0,0,1,.43-1,1.57,1.57,0,0,1,.9-.48,7,7,0,0,1,1.52-.14h3.47v6.56Zm-.65-1.55h2.76v-3.47h-2.76a1,1,0,0,0-.65.16.68.68,0,0,0-.2.55v2.06a.64.64,0,0,0,.2.54,1,1,0,0,0,.65.16m4.08,0h1.22v1.55h-1.22Zm1.22,1.55v-1.55q.15,0,.21.21a2.265,2.265,0,0,1,.06.57,2.115,2.115,0,0,1-.06.56q-.06.21-.21.21" transform="translate(-13681.271 5045.306)" fill="#00ab69"/><path d="M654.85,586.38c-.11,0-.18-.07-.22-.21a2.123,2.123,0,0,1-.06-.56,2.265,2.265,0,0,1,.06-.57.207.207,0,0,1,.22-.21Zm0,0v-1.55h2.66l-.74.75v-5.76h1.37v6.56Zm2.6-8.22a.66.66,0,0,1-.35-.14,2,2,0,0,1-.36-.35.66.66,0,0,1-.15-.37.63.63,0,0,1,.15-.37,1.412,1.412,0,0,1,.34-.35.66.66,0,0,1,.37-.15.61.61,0,0,1,.37.15,1.932,1.932,0,0,1,.35.35.632.632,0,0,1,.15.37.66.66,0,0,1-.15.36,2,2,0,0,1-.36.36.69.69,0,0,1-.36.14" transform="translate(-13681.271 5045.306)" fill="#00ab69"/><path d="M659.89,586.38v-8.79h1.38v7.24h1.3v1.55Zm2.68,0v-1.55c.1,0,.18.07.22.21a2.267,2.267,0,0,1,.06.57,2.118,2.118,0,0,1-.06.56.213.213,0,0,1-.22.21" transform="translate(-13681.271 5045.306)" fill="#00ab69"/><path d="M662.57,586.38c-.1,0-.17-.07-.22-.21a2.12,2.12,0,0,1-.06-.56,2.264,2.264,0,0,1,.06-.57.213.213,0,0,1,.22-.21Zm0,0v-1.55h6.61v-3.49a6.139,6.139,0,0,0-.64-.1h-.78a9.552,9.552,0,0,0-1.26.09,11.662,11.662,0,0,0-1.31.26l-.51-1.31a6.517,6.517,0,0,1,1-.31,8.187,8.187,0,0,1,1.12-.2,11.022,11.022,0,0,1,1.13-.06,4.7,4.7,0,0,1,1.55.2,1.47,1.47,0,0,1,.83.61,2.14,2.14,0,0,1,.27,1.14v4.76Zm2.19-.52a2.41,2.41,0,0,1-.52-1.18,8.481,8.481,0,0,1-.14-1.57,7,7,0,0,1,.16-1.47,9.3,9.3,0,0,1,.42-1.4l1.32.36c-.16.47-.29.9-.38,1.29a5,5,0,0,0-.15,1.22,9.655,9.655,0,0,0,0,1,4.1,4.1,0,0,0,.17.82,2.672,2.672,0,0,0,.34.7Z" transform="translate(-13681.271 5045.306)" fill="#00ab69"/><path d="M672.25,586.38v-8.79h1.38v7.24h1.29v1.55Zm2.67,0v-1.55c.11,0,.18.07.22.21a2.262,2.262,0,0,1,.06.57,2.12,2.12,0,0,1-.06.56.207.207,0,0,1-.22.21" transform="translate(-13681.271 5045.306)" fill="#00ab69"/><path d="M674.92,586.38q-.15,0-.21-.21a2.12,2.12,0,0,1-.06-.56,2.253,2.253,0,0,1,.06-.57q.06-.21.21-.21Zm0,0v-1.55h1.93v-3.75h1.37v5.3Zm3.3,0v-1.55h1.93a1.88,1.88,0,0,0,.83-.14.62.62,0,0,0,.26-.6v-3h1.37v2.44a6.891,6.891,0,0,1-.12,1.42,1.711,1.711,0,0,1-.44.87,1.761,1.761,0,0,1-.93.44,8.28,8.28,0,0,1-1.58.13Zm6,0a7.735,7.735,0,0,1-1.52-.13,1.73,1.73,0,0,1-.9-.44,1.7,1.7,0,0,1-.43-.87,6.887,6.887,0,0,1-.12-1.42v-2.44h1.37v3c0,.31.08.51.26.6a1.81,1.81,0,0,0,.81.14h1.79a7.832,7.832,0,0,0,.11-.91q0-.48,0-1.11a8.788,8.788,0,0,0-.1-1.33c-.06-.46-.15-.94-.26-1.42l1.35-.21c.07.25.14.54.2.88s.1.68.13,1a8.705,8.705,0,0,1,.06,1,7.33,7.33,0,0,1-.26,2.19,1.83,1.83,0,0,1-.87,1.12,3.52,3.52,0,0,1-1.66.33" transform="translate(-13681.271 5045.306)" fill="#00ab69"/></g></svg>