<svg xmlns="http://www.w3.org/2000/svg" width="544.156" height="748.019" viewBox="0 0 544.156 748.019">
  <g id="samandehi" transform="translate(-243.605 -115.3)">
    <path id="Path_1" data-name="Path 1" d="M469.9,115.7c1.2-.2,2.5-.3,3.7-.4,2.2,7.8,2.8,16.1,7,23.2,9,15.8,22.5,28.6,31.8,44.3a37.732,37.732,0,0,1,2.8,32.1c-6.4,17-17,32-26.5,47.4-4.9,8-11,15.1-16,23-3.6,6.2-8.5,11.9-14.8,15.5-1.3-7.9,1.6-16.2-1.8-23.7-8.8-18.6-27.6-30.3-35.6-49.4a37.442,37.442,0,0,1,2.2-27.3c11.6-23.9,25.3-46.7,38.5-69.6C464.2,125.9,465.9,120,469.9,115.7Z" fill="#e5ad26"/>
    <path id="Path_2" data-name="Path 2" d="M536.6,278.7c15.7-2,32.4-2.1,47,4.5C608.9,294,628,318,632.7,345.1c3.8,14.4,4.8,29.4,4,44.2-.2,15.4-3.9,30.5-9.2,44.8a163.29,163.29,0,0,1-34.7,55.2c-9.6,9.5-18.7,19.5-29.5,27.6-13.7,10.5-29.5,18.7-46.8,21-8.6,1.1-17.1,3.6-25.8,3.1-23.4-1.8-46.5-7.4-68.6-15.3-16.5-6.1-33.3-11.4-50-17-12-3-24-7.2-36.5-7.4-5.7-.1-9.1,5.3-10.9,10-5.1,14.7-9,29.9-13,44.9-2,8.2-4.6,16.3-5.9,24.6-1.5,9.4-2.5,18.9-3.5,28.4a158.828,158.828,0,0,0,9.7,66.9c5.3,13.9,14.7,26.7,27.8,34.1,18,11.3,40.6,10.8,60.8,6.4a292.06,292.06,0,0,0,58.3-21.1c16.6-8.1,32.1-18.3,47.3-28.7q47.1-32.4,94.9-64a430.972,430.972,0,0,1,55.8-30.6c8.8-4,18.3-6.4,27.7-8.9,6.8-1.5,14.4-1.2,20.5,2.6,3.6,2.3,6.6,5.4,10,8,5.2,4.3,11.8,6.5,16.6,11.3,4.6,4.7,9.6,10.5,8.5,17.5-9.2.8-18.4-2.8-27.6-.9-13.3,1.6-25,8.4-36.7,14.3-10.2,5.1-19.4,11.8-28.7,18.2-13.8,9.4-27.7,18.9-40.6,29.5-32.4,24.9-62.9,52.2-96.4,75.6-15.4,10.8-31.2,21-47.5,30.4-19.4,10.3-39.2,20.4-60.7,25.4-20.3,5-41.6,8.9-62.4,4.4-13.6-2.8-28.1-6-38.8-15.6-13.2-12.3-20.2-29.5-25.4-46.4-2.9-12.3-5.9-24.7-5.9-37.4.1-7-1.9-14-.9-21.1,1.8-10.6.2-21.4,2.2-31.9,2.4-12.2,3.5-24.6,6.1-36.8,3.2-13.1,5.9-26.5,9.8-39.5,4.4-15.4,9.4-30.5,14.5-45.7,2.5-7.5,7.8-14.4,7.3-22.7-6.7-1.5-13.6.3-19.9,2.6-6.1,2.3-12.4,4.3-18.1,7.5-6.9,3.7-13.1,8.5-19.5,12.9-1.9,1.4-5.4,2.3-6.8-.2-1.1-2.4-.5-5.1.4-7.4,7.7-19.5,22.9-35.5,41-45.8,6.6-3.1,12-8.2,16.6-13.7a87.444,87.444,0,0,1,26.5-21.5c5-2.7,10.8-3.9,15.4-7.4a34.476,34.476,0,0,0,10-11.8c23.5-38.5,53.9-73.4,90.9-99.4,6.9-5.8,15-9.7,22.9-13.9,21.4-11.9,44.3-22.2,68.7-25.7M467.2,336c-15.5,6-29.1,15.6-42.3,25.5-11.7,9.2-21.9,20.1-32.3,30.7-7.2,7.6-12.6,16.6-19.6,24.4-2.6,2.7-1.5,6.7-1.4,10.1a341.283,341.283,0,0,1,39,3c38,7.2,73.6,23.4,111.1,32.7,10.1,3.2,20.7,3.9,31.2,5.4,7.4,1.1,14.8-.4,22.1-1.6,7.4-1.3,11.7-8.2,16.8-12.9,9.4-9,13.5-22.2,14.2-34.9-.4-11.6,1-23.3-.9-34.9-3-12.4-10-23.6-18.7-32.7-6.5-6-13.2-11.9-21.2-15.7A112.144,112.144,0,0,0,532,326a140.528,140.528,0,0,0-64.8,10Z" fill="#e5ad26"/>
    <path id="Path_3" data-name="Path 3" d="M718.9,625.6c9.8-4.8,21.1-5.6,31.8-4.3,5,.8,8.6,4.6,12.1,7.9,5.8,5.6,13.1,9.5,18.2,15.9,3.4,4.5,7.3,9.4,6.7,15.5-1.3.5-2.5,1.5-4,1.3-4.7-.1-9.3-.9-14-.7a64.56,64.56,0,0,0-26.2,6.9c-17.8,8.5-33.6,20.6-48.7,33.2-13.2,11.4-26.4,22.9-38.6,35.5-15.5,15.5-31,31-47.3,45.7q-18.6,18.45-38.3,35.6a265.731,265.731,0,0,1-42.3,29.7c-10.2,5.8-21,10.5-32.5,12.9-16.8,2.8-34.2,4.2-50.9-.2a84.955,84.955,0,0,1-15.6-5.5c-8.4-3.9-17.9-3.7-26.3-7.4-11.8-4.9-23.2-12.2-30.1-23.3-1.8-2.7-1.5-6-1.4-9.1,6.4-.2,12.1,3,18.2,4.3,20.6,2.7,41.3-1.8,60.7-8.5,7.1-2.6,14.5-4.7,21.3-8,11.3-5.2,21.9-11.8,32.6-18.1,17.8-10.3,33.9-23.3,49.6-36.6,28.8-25,57.8-49.6,87.8-73.1,23.7-19.3,48.7-37.9,77.2-49.6Z" fill="#e5ad26"/>
  </g>
</svg>
